<svg width="37" height="45" viewBox="0 0 37 45" fill="none" xmlns="http://www.w3.org/2000/svg">
<path fill-rule="evenodd" clip-rule="evenodd" d="M18.5 44.0417C18.5 44.0417 36.125 32.2917 36.125 18.5833C36.125 13.9089 34.2681 9.4259 30.9628 6.12057C27.6574 2.81524 23.1744 0.958328 18.5 0.958328C13.8256 0.958328 9.34257 2.81524 6.03724 6.12057C2.73191 9.4259 0.875 13.9089 0.875 18.5833C0.875 32.2917 18.5 44.0417 18.5 44.0417ZM24.375 18.5833C24.375 21.828 21.7447 24.4583 18.5 24.4583C15.2553 24.4583 12.625 21.828 12.625 18.5833C12.625 15.3387 15.2553 12.7083 18.5 12.7083C21.7447 12.7083 24.375 15.3387 24.375 18.5833Z" fill="#333333"/>
</svg>
